<svg width="1779" height="715" viewBox="0 0 1779 715" fill="none" xmlns="http://www.w3.org/2000/svg">
<path d="M500.064 250.129C500.052 299.574 485.377 347.905 457.896 389.01C430.415 430.116 391.362 462.149 345.676 481.059C299.989 499.969 249.721 504.907 201.229 495.248C152.736 485.589 108.196 461.768 73.2421 426.796C38.288 391.823 14.4893 347.272 4.85543 298.774C-4.7784 250.276 0.185359 200.011 19.119 154.334C38.0527 108.657 70.1058 69.6209 111.225 42.1612C152.345 14.7014 200.683 0.0515662 250.129 0.0642808L250.104 95.1773C219.47 95.1694 189.522 104.246 164.047 121.258C138.571 138.271 118.713 162.456 106.983 190.755C95.2523 219.054 92.177 250.195 98.1457 280.242C104.114 310.289 118.859 337.891 140.514 359.558C162.17 381.225 189.765 395.983 219.808 401.967C249.852 407.951 280.995 404.892 309.3 393.176C337.605 381.461 361.8 361.615 378.826 336.148C395.852 310.681 404.943 280.738 404.951 250.104L500.064 250.129Z" fill="white"/>
<path d="M0 567.563V472L250 619.375L500 472V567.563L250 714.938L0 567.563Z" fill="white"/>
<path d="M650.42 450.98C636.092 450.98 622.56 448.327 609.824 443.02C597.353 437.448 586.342 430.019 576.79 420.732C567.503 411.18 560.207 400.036 554.9 387.3C549.593 374.299 546.94 360.369 546.94 345.51C546.94 330.651 549.593 316.854 554.9 304.118C560.207 291.117 567.503 279.973 576.79 270.686C586.342 261.134 597.353 253.705 609.824 248.398C622.56 242.826 636.092 240.04 650.42 240.04C664.748 240.04 678.147 242.826 690.618 248.398C703.354 253.705 714.365 261.134 723.652 270.686C733.204 279.973 740.633 291.117 745.94 304.118C751.247 316.854 753.9 330.651 753.9 345.51V359.44H588.73C590.322 367.931 592.975 375.493 596.69 382.126C600.405 388.759 605.048 394.464 610.62 399.24C616.192 403.751 622.295 407.2 628.928 409.588C635.827 411.976 642.991 413.17 650.42 413.17C660.768 413.17 669.657 411.843 677.086 409.19C684.515 406.271 690.485 402.955 694.996 399.24C700.303 395.26 704.681 390.617 708.13 385.31H751.91C746.869 397.781 739.837 408.792 730.816 418.344C726.836 422.324 722.325 426.304 717.284 430.284C712.243 434.264 706.405 437.846 699.772 441.03C693.139 443.949 685.709 446.337 677.484 448.194C669.259 450.051 660.237 450.98 650.42 450.98ZM710.12 325.61C709.059 319.773 707.069 313.935 704.15 308.098C701.231 302.261 697.251 297.219 692.21 292.974C687.169 288.463 681.199 284.881 674.3 282.228C667.401 279.309 659.441 277.85 650.42 277.85C643.521 277.85 636.755 278.911 630.122 281.034C623.754 283.157 617.784 286.341 612.212 290.586C606.905 294.566 602.395 299.607 598.68 305.71C594.965 311.547 592.312 318.181 590.72 325.61H710.12ZM789.751 244.02H831.541V273.87H833.531C836.715 268.033 840.96 262.726 846.267 257.95C850.778 253.97 856.482 250.388 863.381 247.204C870.545 243.755 879.168 242.03 889.251 242.03H913.131V281.83H887.261C879.301 281.83 871.872 283.157 864.973 285.81C858.34 288.463 852.502 292.178 847.461 296.954C842.42 301.73 838.44 307.567 835.521 314.466C832.868 321.365 831.541 329.059 831.541 337.55V447H789.751V244.02ZM952.791 281.83H928.911V244.02H952.791V200.24H994.581V244.02H1056.27V281.83H994.581V409.19H1058.26V447H952.791V281.83ZM1185.62 450.98C1171.29 450.98 1157.76 448.327 1145.03 443.02C1132.55 437.448 1121.54 430.019 1111.99 420.732C1102.7 411.18 1095.41 400.036 1090.1 387.3C1084.79 374.299 1082.14 360.369 1082.14 345.51C1082.14 330.651 1084.79 316.854 1090.1 304.118C1095.41 291.117 1102.7 279.973 1111.99 270.686C1121.54 261.134 1132.55 253.705 1145.03 248.398C1157.76 242.826 1171.29 240.04 1185.62 240.04C1199.95 240.04 1213.35 242.826 1225.82 248.398C1238.56 253.705 1249.57 261.134 1258.85 270.686C1268.41 279.973 1275.83 291.117 1281.14 304.118C1286.45 316.854 1289.1 330.651 1289.1 345.51V359.44H1123.93C1125.52 367.931 1128.18 375.493 1131.89 382.126C1135.61 388.759 1140.25 394.464 1145.82 399.24C1151.39 403.751 1157.5 407.2 1164.13 409.588C1171.03 411.976 1178.19 413.17 1185.62 413.17C1195.97 413.17 1204.86 411.843 1212.29 409.19C1219.72 406.271 1225.69 402.955 1230.2 399.24C1235.5 395.26 1239.88 390.617 1243.33 385.31H1287.11C1282.07 397.781 1275.04 408.792 1266.02 418.344C1262.04 422.324 1257.53 426.304 1252.49 430.284C1247.44 434.264 1241.61 437.846 1234.97 441.03C1228.34 443.949 1220.91 446.337 1212.69 448.194C1204.46 450.051 1195.44 450.98 1185.62 450.98ZM1245.32 325.61C1244.26 319.773 1242.27 313.935 1239.35 308.098C1236.43 302.261 1232.45 297.219 1227.41 292.974C1222.37 288.463 1216.4 284.881 1209.5 282.228C1202.6 279.309 1194.64 277.85 1185.62 277.85C1178.72 277.85 1171.96 278.911 1165.32 281.034C1158.96 283.157 1152.99 286.341 1147.41 290.586C1142.11 294.566 1137.6 299.607 1133.88 305.71C1130.17 311.547 1127.51 318.181 1125.92 325.61H1245.32ZM1408.53 450.98C1395 450.98 1382.4 448.459 1370.72 443.418C1359.31 438.377 1349.23 431.345 1340.47 422.324C1331.98 413.037 1325.22 401.893 1320.18 388.892C1315.4 375.891 1313.01 361.43 1313.01 345.51C1313.01 329.59 1315.4 315.129 1320.18 302.128C1325.22 289.127 1331.98 278.115 1340.47 269.094C1349.23 259.807 1359.31 252.643 1370.72 247.602C1382.4 242.561 1395 240.04 1408.53 240.04C1418.88 240.04 1428.03 241.632 1435.99 244.816C1443.95 248 1450.59 251.449 1455.89 255.164C1462.26 259.675 1467.7 264.583 1472.21 269.89H1474.2V168.4H1515.99V447H1474.2V421.13H1472.21C1467.7 426.702 1462.26 431.743 1455.89 436.254C1450.59 439.969 1443.95 443.418 1435.99 446.602C1428.03 449.521 1418.88 450.98 1408.53 450.98ZM1416.49 413.17C1433.47 413.17 1447.27 407.465 1457.88 396.056C1468.76 384.381 1474.2 367.533 1474.2 345.51C1474.2 323.487 1468.76 306.771 1457.88 295.362C1447.27 283.687 1433.47 277.85 1416.49 277.85C1398.45 277.85 1383.99 283.687 1373.11 295.362C1362.23 306.771 1356.79 323.487 1356.79 345.51C1356.79 367.533 1362.23 384.381 1373.11 396.056C1383.99 407.465 1398.45 413.17 1416.49 413.17ZM1563.6 244.02H1605.39V447H1563.6V244.02ZM1584.29 214.17C1577.39 214.17 1571.56 211.782 1566.78 207.006C1562 202.23 1559.62 196.393 1559.62 189.494C1559.62 182.595 1562 176.758 1566.78 171.982C1571.56 166.941 1577.39 164.42 1584.29 164.42C1591.19 164.42 1597.03 166.941 1601.8 171.982C1606.85 176.758 1609.37 182.595 1609.37 189.494C1609.37 196.393 1606.85 202.23 1601.8 207.006C1597.03 211.782 1591.19 214.17 1584.29 214.17ZM1660.95 281.83H1637.07V244.02H1660.95V200.24H1702.74V244.02H1764.43V281.83H1702.74V409.19H1766.42V447H1660.95V281.83Z" fill="white"/>
</svg>
